<?xml version="1.0" encoding="utf-8"?>
<!-- Svg Vector Icons : http://www.onlinewebfonts.com/icon -->
<!DOCTYPE svg PUBLIC "-//W3C//DTD SVG 1.1//EN" "http://www.w3.org/Graphics/SVG/1.1/DTD/svg11.dtd">
<svg version="1.1" xmlns="http://www.w3.org/2000/svg" xmlns:xlink="http://www.w3.org/1999/xlink" x="0px" y="0px" viewBox="0 0 256 256" enable-background="new 0 0 256 256" xml:space="preserve">
<metadata> Svg Vector Icons : http://www.onlinewebfonts.com/icon </metadata>
<g><g><path fill="#000000" d="M10,45.9L10,45.9L10,45.9L10,45.9L10,45.9L10,45.9L10,45.9L10,45.9z"/><path fill="#000000" d="M134.1,208.5c-49.5,0-89.8-40.3-89.8-89.8c0-49.5,40.3-89.8,89.8-89.8c49.5,0,89.8,40.3,89.8,89.8C223.9,168.2,183.7,208.5,134.1,208.5 M134.1,36.7c-45.2,0-82,36.8-82,82c0,45.2,36.8,82,82,82c45.2,0,82-36.8,82-82C216.1,73.5,179.3,36.7,134.1,36.7"/><path fill="#000000" d="M240.9,227.1l-50.8-43l5.1-5.9l50.8,43L240.9,227.1z"/></g></g>
</svg>